<mxfile host="Electron" modified="2024-12-20T00:38:53.741Z" agent="Mozilla/5.0 (Windows NT 10.0; Win64; x64) AppleWebKit/537.36 (KHTML, like Gecko) draw.io/24.4.8 Chrome/124.0.6367.207 Electron/30.0.6 Safari/537.36" etag="DFwT5zq3Od5IUBgWmE-c" version="24.4.8" type="device">
  <diagram name="Страница — 1" id="R7oG8q4yxgxvC7gy9HxO">
    <mxGraphModel dx="407" dy="277" grid="0" gridSize="10" guides="1" tooltips="1" connect="1" arrows="1" fold="1" page="0" pageScale="1" pageWidth="1169" pageHeight="827" math="0" shadow="0">
      <root>
        <mxCell id="0" />
        <mxCell id="1" parent="0" />
        <mxCell id="vj34qItFPPfbilXvD4A3-6" style="edgeStyle=orthogonalEdgeStyle;rounded=0;orthogonalLoop=1;jettySize=auto;html=1;endArrow=none;endFill=0;dashed=1;" edge="1" parent="1" source="vj34qItFPPfbilXvD4A3-1">
          <mxGeometry relative="1" as="geometry">
            <mxPoint x="150" y="610.9972413793105" as="targetPoint" />
          </mxGeometry>
        </mxCell>
        <mxCell id="vj34qItFPPfbilXvD4A3-1" value="Пользователь" style="shape=umlActor;verticalLabelPosition=bottom;verticalAlign=top;html=1;outlineConnect=0;" vertex="1" parent="1">
          <mxGeometry x="135" y="283" width="30" height="60" as="geometry" />
        </mxCell>
        <mxCell id="vj34qItFPPfbilXvD4A3-2" value="Администратор" style="shape=umlActor;verticalLabelPosition=bottom;verticalAlign=top;html=1;outlineConnect=0;" vertex="1" parent="1">
          <mxGeometry x="905" y="283" width="30" height="60" as="geometry" />
        </mxCell>
        <mxCell id="vj34qItFPPfbilXvD4A3-7" style="edgeStyle=orthogonalEdgeStyle;rounded=0;orthogonalLoop=1;jettySize=auto;html=1;exitX=0.5;exitY=1;exitDx=0;exitDy=0;endArrow=none;endFill=0;dashed=1;" edge="1" parent="1" source="vj34qItFPPfbilXvD4A3-3">
          <mxGeometry relative="1" as="geometry">
            <mxPoint x="454" y="544" as="targetPoint" />
          </mxGeometry>
        </mxCell>
        <mxCell id="vj34qItFPPfbilXvD4A3-3" value="Главная страница" style="rounded=0;whiteSpace=wrap;html=1;" vertex="1" parent="1">
          <mxGeometry x="408" y="297" width="92" height="46" as="geometry" />
        </mxCell>
        <mxCell id="vj34qItFPPfbilXvD4A3-8" style="edgeStyle=orthogonalEdgeStyle;rounded=0;orthogonalLoop=1;jettySize=auto;html=1;exitX=0.5;exitY=1;exitDx=0;exitDy=0;endArrow=none;endFill=0;dashed=1;" edge="1" parent="1" source="vj34qItFPPfbilXvD4A3-4">
          <mxGeometry relative="1" as="geometry">
            <mxPoint x="626" y="570" as="targetPoint" />
          </mxGeometry>
        </mxCell>
        <mxCell id="vj34qItFPPfbilXvD4A3-4" value="Страница филиала" style="rounded=0;whiteSpace=wrap;html=1;" vertex="1" parent="1">
          <mxGeometry x="580" y="297" width="92" height="46" as="geometry" />
        </mxCell>
        <mxCell id="vj34qItFPPfbilXvD4A3-10" value="" style="rounded=0;whiteSpace=wrap;html=1;" vertex="1" parent="1">
          <mxGeometry x="138" y="403" width="24" height="181" as="geometry" />
        </mxCell>
        <mxCell id="vj34qItFPPfbilXvD4A3-14" style="edgeStyle=orthogonalEdgeStyle;rounded=0;orthogonalLoop=1;jettySize=auto;html=1;endArrow=open;endFill=0;entryX=1.005;entryY=0.076;entryDx=0;entryDy=0;entryPerimeter=0;exitX=0.036;exitY=0.046;exitDx=0;exitDy=0;exitPerimeter=0;" edge="1" parent="1" source="vj34qItFPPfbilXvD4A3-11" target="vj34qItFPPfbilXvD4A3-13">
          <mxGeometry relative="1" as="geometry">
            <mxPoint x="905" y="385" as="sourcePoint" />
            <mxPoint x="472" y="385" as="targetPoint" />
            <Array as="points">
              <mxPoint x="909" y="381" />
            </Array>
          </mxGeometry>
        </mxCell>
        <mxCell id="vj34qItFPPfbilXvD4A3-15" value="1: Редактирование основной информации" style="edgeLabel;html=1;align=center;verticalAlign=middle;resizable=0;points=[];" vertex="1" connectable="0" parent="vj34qItFPPfbilXvD4A3-14">
          <mxGeometry x="0.3486" y="-2" relative="1" as="geometry">
            <mxPoint x="47" y="-6" as="offset" />
          </mxGeometry>
        </mxCell>
        <mxCell id="vj34qItFPPfbilXvD4A3-13" value="" style="rounded=0;whiteSpace=wrap;html=1;" vertex="1" parent="1">
          <mxGeometry x="442" y="369" width="24" height="157" as="geometry" />
        </mxCell>
        <mxCell id="vj34qItFPPfbilXvD4A3-17" value="" style="rounded=0;whiteSpace=wrap;html=1;" vertex="1" parent="1">
          <mxGeometry x="614" y="399" width="24" height="151" as="geometry" />
        </mxCell>
        <mxCell id="vj34qItFPPfbilXvD4A3-18" style="edgeStyle=orthogonalEdgeStyle;rounded=0;orthogonalLoop=1;jettySize=auto;html=1;endArrow=open;endFill=0;exitX=0.014;exitY=0.129;exitDx=0;exitDy=0;exitPerimeter=0;" edge="1" parent="1" source="vj34qItFPPfbilXvD4A3-11">
          <mxGeometry relative="1" as="geometry">
            <mxPoint x="890" y="412" as="sourcePoint" />
            <mxPoint x="638" y="412" as="targetPoint" />
            <Array as="points">
              <mxPoint x="908" y="412" />
            </Array>
          </mxGeometry>
        </mxCell>
        <mxCell id="vj34qItFPPfbilXvD4A3-19" value="2: Редактирование информации о филиале" style="edgeLabel;html=1;align=center;verticalAlign=middle;resizable=0;points=[];" vertex="1" connectable="0" parent="vj34qItFPPfbilXvD4A3-18">
          <mxGeometry x="0.2756" y="-1" relative="1" as="geometry">
            <mxPoint x="37" y="-8" as="offset" />
          </mxGeometry>
        </mxCell>
        <mxCell id="vj34qItFPPfbilXvD4A3-20" style="edgeStyle=orthogonalEdgeStyle;rounded=0;orthogonalLoop=1;jettySize=auto;html=1;entryX=0.024;entryY=0.304;entryDx=0;entryDy=0;entryPerimeter=0;endArrow=open;endFill=0;" edge="1" parent="1">
          <mxGeometry relative="1" as="geometry">
            <mxPoint x="162" y="423.27" as="sourcePoint" />
            <mxPoint x="442.576" y="422.99799999999993" as="targetPoint" />
            <Array as="points">
              <mxPoint x="256" y="423.27" />
              <mxPoint x="256" y="423.27" />
            </Array>
          </mxGeometry>
        </mxCell>
        <mxCell id="vj34qItFPPfbilXvD4A3-21" value="3: Просмотр основной ифнормации" style="edgeLabel;html=1;align=center;verticalAlign=middle;resizable=0;points=[];" vertex="1" connectable="0" parent="vj34qItFPPfbilXvD4A3-20">
          <mxGeometry x="-0.0629" relative="1" as="geometry">
            <mxPoint x="1" y="-9" as="offset" />
          </mxGeometry>
        </mxCell>
        <mxCell id="vj34qItFPPfbilXvD4A3-22" style="edgeStyle=orthogonalEdgeStyle;rounded=0;orthogonalLoop=1;jettySize=auto;html=1;entryX=-0.008;entryY=0.633;entryDx=0;entryDy=0;entryPerimeter=0;endArrow=open;endFill=0;" edge="1" parent="1">
          <mxGeometry relative="1" as="geometry">
            <mxPoint x="162.19" y="452.9971428571429" as="sourcePoint" />
            <mxPoint x="441.998" y="453.93600000000004" as="targetPoint" />
          </mxGeometry>
        </mxCell>
        <mxCell id="vj34qItFPPfbilXvD4A3-23" value="4: Просмотр контактной ифнормации о филиале" style="edgeLabel;html=1;align=center;verticalAlign=middle;resizable=0;points=[];" vertex="1" connectable="0" parent="vj34qItFPPfbilXvD4A3-22">
          <mxGeometry x="-0.2823" y="1" relative="1" as="geometry">
            <mxPoint x="38" y="-8" as="offset" />
          </mxGeometry>
        </mxCell>
        <mxCell id="vj34qItFPPfbilXvD4A3-24" style="edgeStyle=orthogonalEdgeStyle;rounded=0;orthogonalLoop=1;jettySize=auto;html=1;endArrow=open;endFill=0;" edge="1" parent="1">
          <mxGeometry relative="1" as="geometry">
            <mxPoint x="162" y="484.2413793103449" as="sourcePoint" />
            <mxPoint x="613" y="484" as="targetPoint" />
          </mxGeometry>
        </mxCell>
        <mxCell id="vj34qItFPPfbilXvD4A3-25" value="5: Изучение всей подробной информации о филиале" style="edgeLabel;html=1;align=center;verticalAlign=middle;resizable=0;points=[];" vertex="1" connectable="0" parent="vj34qItFPPfbilXvD4A3-24">
          <mxGeometry x="-0.2465" y="-2" relative="1" as="geometry">
            <mxPoint x="-30" y="-12" as="offset" />
          </mxGeometry>
        </mxCell>
        <mxCell id="vj34qItFPPfbilXvD4A3-26" style="edgeStyle=orthogonalEdgeStyle;rounded=0;orthogonalLoop=1;jettySize=auto;html=1;endArrow=open;endFill=0;" edge="1" parent="1">
          <mxGeometry relative="1" as="geometry">
            <mxPoint x="466.0014285714287" y="507.28571428571433" as="targetPoint" />
            <mxPoint x="907.43" y="507" as="sourcePoint" />
            <Array as="points">
              <mxPoint x="793.43" y="507" />
              <mxPoint x="793.43" y="507" />
            </Array>
          </mxGeometry>
        </mxCell>
        <mxCell id="vj34qItFPPfbilXvD4A3-27" value="6: Анализ данных по главной странице" style="edgeLabel;html=1;align=center;verticalAlign=middle;resizable=0;points=[];" vertex="1" connectable="0" parent="vj34qItFPPfbilXvD4A3-26">
          <mxGeometry x="-0.2177" y="1" relative="1" as="geometry">
            <mxPoint x="38" y="-10" as="offset" />
          </mxGeometry>
        </mxCell>
        <mxCell id="vj34qItFPPfbilXvD4A3-36" style="edgeStyle=orthogonalEdgeStyle;rounded=0;orthogonalLoop=1;jettySize=auto;html=1;dashed=1;endArrow=none;endFill=0;" edge="1" parent="1" source="vj34qItFPPfbilXvD4A3-11">
          <mxGeometry relative="1" as="geometry">
            <mxPoint x="920.0000000000002" y="615.2759041621769" as="targetPoint" />
          </mxGeometry>
        </mxCell>
        <mxCell id="vj34qItFPPfbilXvD4A3-37" style="edgeStyle=orthogonalEdgeStyle;rounded=0;orthogonalLoop=1;jettySize=auto;html=1;exitX=0.5;exitY=0;exitDx=0;exitDy=0;endArrow=none;endFill=0;dashed=1;" edge="1" parent="1" source="vj34qItFPPfbilXvD4A3-11" target="vj34qItFPPfbilXvD4A3-2">
          <mxGeometry relative="1" as="geometry" />
        </mxCell>
        <mxCell id="vj34qItFPPfbilXvD4A3-11" value="" style="rounded=0;whiteSpace=wrap;html=1;" vertex="1" parent="1">
          <mxGeometry x="908" y="369" width="24" height="218" as="geometry" />
        </mxCell>
        <mxCell id="vj34qItFPPfbilXvD4A3-32" style="edgeStyle=orthogonalEdgeStyle;rounded=0;orthogonalLoop=1;jettySize=auto;html=1;entryX=0.981;entryY=0.621;entryDx=0;entryDy=0;entryPerimeter=0;endArrow=open;endFill=0;" edge="1" parent="1">
          <mxGeometry relative="1" as="geometry">
            <mxPoint x="908" y="530.88" as="sourcePoint" />
            <mxPoint x="637.5440000000001" y="530.651" as="targetPoint" />
            <Array as="points">
              <mxPoint x="849" y="530.88" />
              <mxPoint x="849" y="530.88" />
            </Array>
          </mxGeometry>
        </mxCell>
        <mxCell id="vj34qItFPPfbilXvD4A3-33" value="7: Анализ данных по странице филиала" style="edgeLabel;html=1;align=center;verticalAlign=middle;resizable=0;points=[];" vertex="1" connectable="0" parent="vj34qItFPPfbilXvD4A3-32">
          <mxGeometry x="0.3615" y="-2" relative="1" as="geometry">
            <mxPoint x="51" y="-6" as="offset" />
          </mxGeometry>
        </mxCell>
        <mxCell id="vj34qItFPPfbilXvD4A3-34" style="edgeStyle=orthogonalEdgeStyle;rounded=0;orthogonalLoop=1;jettySize=auto;html=1;endArrow=open;endFill=0;exitX=0.035;exitY=0.849;exitDx=0;exitDy=0;exitPerimeter=0;entryX=1.023;entryY=0.862;entryDx=0;entryDy=0;entryPerimeter=0;" edge="1" parent="1" target="vj34qItFPPfbilXvD4A3-10">
          <mxGeometry relative="1" as="geometry">
            <mxPoint x="907.9999999999997" y="559.4920000000001" as="sourcePoint" />
            <mxPoint x="164" y="559" as="targetPoint" />
            <Array as="points">
              <mxPoint x="722" y="560" />
            </Array>
          </mxGeometry>
        </mxCell>
        <mxCell id="vj34qItFPPfbilXvD4A3-35" value="8: Анализ аднных пользователя" style="edgeLabel;html=1;align=center;verticalAlign=middle;resizable=0;points=[];" vertex="1" connectable="0" parent="vj34qItFPPfbilXvD4A3-34">
          <mxGeometry x="-0.6596" y="1" relative="1" as="geometry">
            <mxPoint x="-465" y="-10" as="offset" />
          </mxGeometry>
        </mxCell>
      </root>
    </mxGraphModel>
  </diagram>
</mxfile>
